<svg id="Layer_1" data-name="Layer 1" xmlns="http://www.w3.org/2000/svg" viewBox="0 0 841.89 595.28"><defs><style>.cls-1{fill:#020202;}.cls-2{fill:#e8c582;}.cls-3{fill:#fefefe;}</style></defs><path class="cls-1" d="M656.89,297.69c4,125-105.64,239.08-234.16,235.9C292.43,538.54,180.88,423.35,185,298.14,180.46,170.72,293.89,57,421.71,61.67,548.71,57.92,661.3,171.07,656.89,297.69ZM423.57,192.62h0c-18.66,0-37.32-1.16-56-.94-20.37.24-40.6,1.82-60.08,8.51-24.53,8.42-43.23,23.57-53.22,47.87C243,275.47,242.58,304,248.81,332.49c4.31,19.75,17.11,32.7,36.28,39.11,11.93,4,24.23,4.43,36.54,2.39,19.89-3.28,39.37-8.44,59-13,3.88-.9,6.33-1.39,3.75-6.08-1.27-2.31-1.23-5.27-.7-7.87.9-4.4-1-4.71-4.54-3.86q-18.92,4.56-37.9,8.9c-12.32,2.81-24.44,6.61-37.23,7-25.21.71-40.78-11.51-44.82-35.93a132.53,132.53,0,0,1,0-42.81c4.7-29.3,21.22-48.52,49.65-57.27a145.37,145.37,0,0,1,41.86-6.2c39-.27,78-.19,117-.2a179,179,0,0,1,42.59,4.68c23.41,5.7,42,17.66,51.09,41,7.71,19.82,8.66,40.4,4.17,61-5.19,23.74-20,34.76-44.38,34.6a113.89,113.89,0,0,1-23.28-2.74c-22.12-4.8-44.28-9.41-66.84-11.71-8.28-.84-8.28-.92-8.72,7.42a5.21,5.21,0,0,1-.12,1.49c-1.45,3.85.31,4.59,3.88,4.82a484.41,484.41,0,0,1,83.77,13.05c14.59,3.54,29.34,6.15,44.48,5.47,26.62-1.18,45.57-15.4,54-40.66,5.59-16.75,6-34,4.62-51.4-3.47-43.7-27.25-72.61-69.43-84.33-17.62-4.9-35.7-6.46-53.89-6.63C467.55,192.46,445.56,192.62,423.57,192.62Zm-12.37,78c-.46-.85-.53-1-.61-1.15-.89-1.54,1.24-4.73-1.9-4.81-4.4-.12-8.9-1-13.21.64-.32.12-.39,1.2-.39,1.84,0,21,0,42-.06,62.95,0,3.11,1.39,2.31,3,1.27,3.08-2,6.08-4.1,9.28-5.85,2.33-1.28,3.34-2.84,3.14-5.55-.25-3.23-.06-6.49-.06-9.72.93,0,1.33-.12,1.52,0,12.64,9.2,27.15,5.09,32.62-9.54a34.62,34.62,0,0,0-.2-25.84c-3.08-7.57-8.87-11.3-17-11.57C420.9,263.09,415.76,265.64,411.2,270.62Zm-82.36,15c0-5.83,0-11.65,0-17.48,0-11.18,0-11.18,11.06-11.18,9.57,0,9.47,0,8.89-9.84-.13-2.23-.88-2.84-2.93-2.84-16.47,0-32.94,0-49.42,0-1.46,0-2.77-.16-3.12,2.14C292,255.58,293,257,302,257a45.16,45.16,0,0,0,6.48-.06c3.94-.55,4.67,1.2,4.62,4.79-.2,13.47-.08,27-.07,40.44,0,12,0,11.9,12.14,11.63,2.83-.06,3.72-.87,3.67-3.69C328.72,302,328.82,293.79,328.84,285.64Zm43.26-13.83c-.47-7.67-.47-7.67-6.72-7.66a36.1,36.1,0,0,1-5,0c-3.46-.47-4.15,1.13-4.11,4.27.16,11.48.06,23,.06,34.45,0,11.07,0,10.94,11.32,11,3.27,0,4.3-.86,4.21-4.17-.2-7.31-.21-14.65.11-22,.29-6.71,4.23-10.69,9.81-11.24,2.38-.24,5.39,2.2,6.81-.11,1.11-1.83.25-4.86.26-7.35a16,16,0,0,1,0-2.5c.41-2.57-1-3.05-3.18-3.16C379.78,263,375.71,266,372.1,271.81Zm97.45,127.06c7,.35,9-2.36,6.56-8.91a2.47,2.47,0,0,1-.05-2.2c2.73-6.41,1.57-8.33-5.39-9.22-9.86-1.27-9.86-1.27-11.32,8C457.52,398.23,457.55,398.27,469.55,398.87Zm40.95-11.51c-2.69-.67-3.11.43-3.51,1.58-1.7,4.86-3.32,9.75-5.14,14.55-.86,2.26.1,2.92,2,3.46s3.35,1.1,4.24-1.57c.52-1.56.24-4.6,2.38-4.36,2.33.27,1.36,3.34,2,5.11a9,9,0,0,1,.35,2c.45,3.41,3.71,3.81,5.66,3.65,2.54-.2,1.05-3,.73-4.48-.66-3-1.31-5.17,2.48-7.06,3.15-1.57,2.8-6.64-.36-8.35C517.62,389.82,513.45,388.54,510.5,387.36Zm-104.25-1.45c0,2.49,0,5,0,7.47s.77,3.63,3.53,3.35c3.8-.4,7.64-.41,11.46-.55,1.82-.06,2.73-.74,2.58-2.73s-1.15-2.16-2.68-2.05a32,32,0,0,1-4.48.17c-1.42-.11-3.63,1.14-3.85-1.64s2-1.81,3.46-2.3c2-.69,6,1.83,5.73-2.37s-3.94-1.07-6-1.71c-1.27-.4-3.5.68-3.55-1.51s2.28-1.15,3.49-1.68c2.2-1,6.94,2,6.37-2.79-.47-3.89-4.69-1.65-7.08-1.59C405.72,376.19,405.72,376.35,406.25,385.91Zm21.16-.06c0,2.32.1,4.66,0,7-.11,2,.31,3.21,2.61,3.23,4,0,8,.17,12,.26,1.72.05,2.8-.39,2.78-2.5,0-2.28-1.4-2.28-3-2.29a22.49,22.49,0,0,1-3.49-.08c-1.56-.27-4.12,1.05-4.24-1.93-.13-3.26,2.54-1.65,4-1.92a18.39,18.39,0,0,1,3.48,0c1.31,0,2.26-.28,2.22-1.91,0-1.37-.45-2.25-2-2.29a25.2,25.2,0,0,1-3.48-.13c-1.47-.23-4,.79-4-1.59s2.59-1.05,4-1.5c2.14-.69,6.24,2.23,6.18-2.25,0-4.31-4.16-2-6.3-2.12C427.89,375.36,427.89,375.51,427.41,385.85ZM363,395.74c-.06-6.89-3.83-11.22-9.81-11.27-7.12-.06-11.5,3.87-11.39,10.2.12,6.8,4.12,11.18,10.07,11.05C358.75,405.56,363,401.74,363,395.74Zm129-13.22c-2.18-.66-3.19.42-4.19,2-2.59,4.06-5.42,8-8,12-.69,1.07-2.79,2.39-1,3.65,1.3.89,3.45,1.91,5.12.58,3.95-3.17,6.65-2.25,8.76,2.09,1,2,3.22,2,4.83,1.81,2.39-.28,1-2.32.86-3.6-.47-4.63-1.35-9.23-1.51-13.87C496.78,383.51,494.64,382.8,492,382.52Zm-80.25-33.83c-.12-5.17-3.81-8.51-9.16-8.32s-8.73,3.78-8.49,9a8.58,8.58,0,0,0,9.18,8.47C408.42,357.67,411.89,353.93,411.76,348.69Zm-81.11,41.83c-5.11,0-9.39,2.64-10.7,6.35-1.48,4.21.31,10.32,3.85,13.17,4.8,3.86,14.33,1.17,15.86-4.56.33-1.25,1.36-3.28-.88-3.68-1.53-.28-4-1.19-4.58,1.46-.69,2.9-2.58,4.32-5,3.08-3.14-1.59-3.87-5-3.07-8.23.65-2.61,2.88-3.13,5.18-2,2.51,1.22,5,0,5.43-1.72.47-2.23-2.23-3.22-4.35-3.75A7.92,7.92,0,0,0,330.65,390.52Zm65.46-5.25c-1.05-.15-3.07,1.15-3.49-1-.52-2.65,2-2,3.4-2.37a13.09,13.09,0,0,1,3-.36c1.79-.09,2.18-1.15,2-2.69-.18-1.8-1.28-2.07-2.81-1.83-1.79.28-3.6.5-5.41.69-7.4.79-7.41.78-6.67,8.39.29,3,.84,5.92.94,8.89.1,2.65.81,3.86,3.81,3.62,3.42-.27,3.16-2.31,2.65-4.5-.74-3.17.26-4.67,3.61-4.69,1.52,0,3.65.27,3.41-2.39C400.25,383.94,398,385.23,396.11,385.27Zm-30.48-.73c.05.32.09.65.14,1,.71,4.26,1.64,8.49,2,12.78.28,2.86,1.32,3.64,4.09,3.26,3-.42,2.86-2.14,2.27-4.26-.86-3.07-.29-5.1,3.42-5.35,1.73-.11,4-.22,3.25-3-.71-2.56-2.68-1-4.13-1s-3.69,1.51-4-1.18c-.26-2.47,2.24-1.78,3.68-2.18.95-.27,1.95-.39,2.93-.57,1.86-.33,2.25-2.21,1.45-3-3.67-3.36-7.62.15-11.47.1-1.4,0-4.61-.68-3.78,2.91C365.59,384.21,365.61,384.37,365.63,384.54Z"/><path class="cls-2" d="M423.57,192.62c22,0,44-.16,66,0,18.19.17,36.27,1.73,53.89,6.63,42.18,11.72,66,40.63,69.43,84.33,1.38,17.39,1,34.65-4.62,51.4-8.43,25.26-27.38,39.48-54,40.66-15.14.68-29.89-1.93-44.48-5.47A484.41,484.41,0,0,0,426,357.17c-3.57-.23-5.33-1-3.88-4.82a5.21,5.21,0,0,0,.12-1.49c.44-8.34.44-8.26,8.72-7.42,22.56,2.3,44.72,6.91,66.84,11.71a113.89,113.89,0,0,0,23.28,2.74c24.39.16,39.19-10.86,44.38-34.6,4.49-20.55,3.54-41.13-4.17-61-9.11-23.39-27.68-35.35-51.09-41a179,179,0,0,0-42.59-4.68c-39,0-78-.07-117,.2a145.37,145.37,0,0,0-41.86,6.2c-28.43,8.75-44.95,28-49.65,57.27a132.53,132.53,0,0,0,0,42.81c4,24.42,19.61,36.64,44.82,35.93,12.79-.36,24.91-4.16,37.23-7q19-4.33,37.9-8.9c3.54-.85,5.44-.54,4.54,3.86-.53,2.6-.57,5.56.7,7.87,2.58,4.69.13,5.18-3.75,6.08-19.6,4.59-39.08,9.75-59,13-12.31,2-24.61,1.6-36.54-2.39-19.17-6.41-32-19.36-36.28-39.11-6.23-28.52-5.78-57,5.49-84.43,10-24.3,28.69-39.45,53.22-47.87,19.48-6.69,39.71-8.27,60.08-8.51,18.65-.22,37.31.94,56,.94Z"/><path class="cls-3" d="M411.2,270.62c4.56-5,9.7-7.53,16.11-7.31,8.17.27,14,4,17,11.57a34.62,34.62,0,0,1,.2,25.84c-5.47,14.63-20,18.74-32.62,9.54-.19-.14-.59,0-1.52,0,0,3.23-.19,6.49.06,9.72.2,2.71-.81,4.27-3.14,5.55-3.2,1.75-6.2,3.88-9.28,5.85-1.63,1-3,1.84-3-1.27.05-21,0-42,.06-62.95,0-.64.07-1.72.39-1.84,4.31-1.63,8.81-.76,13.21-.64,3.14.08,1,3.27,1.9,4.81C410.67,269.62,410.74,269.77,411.2,270.62Zm19.85,17.13c-.08-.88-.13-2.21-.32-3.52-.77-5.42-3.62-8.56-8.25-9.17a10.24,10.24,0,0,0-11.27,7,24.19,24.19,0,0,0-.18,14.7,8.77,8.77,0,0,0,7.88,6.61,9.33,9.33,0,0,0,9.39-4.29C430.52,295.79,430.93,292,431.05,287.75Z"/><path class="cls-3" d="M328.83,285.64c0,8.15-.11,16.31.05,24.46.05,2.82-.84,3.63-3.67,3.69-12.14.27-12.14.37-12.14-11.63,0-13.48-.13-27,.07-40.44.05-3.59-.68-5.34-4.62-4.79A45.16,45.16,0,0,1,302,257c-9.05,0-10.08-1.41-8.72-10.52.35-2.3,1.66-2.14,3.12-2.14,16.48,0,32.95,0,49.42,0,2.05,0,2.8.61,2.93,2.84.58,9.85.68,9.85-8.89,9.84-11,0-11,0-11.06,11.18C328.83,274,328.84,279.81,328.83,285.64Z"/><path class="cls-3" d="M372.1,271.81c3.61-5.85,7.68-8.8,13.61-8.49,2.14.11,3.59.59,3.18,3.16a16,16,0,0,0,0,2.5c0,2.49.85,5.52-.26,7.35-1.42,2.31-4.43-.13-6.81.11-5.58.55-9.52,4.53-9.81,11.24-.32,7.31-.31,14.65-.11,22,.09,3.31-.94,4.18-4.21,4.17-11.31,0-11.31.11-11.32-11,0-11.48.1-23-.06-34.45,0-3.14.65-4.74,4.11-4.27a36.1,36.1,0,0,0,5,0C371.63,264.14,371.63,264.14,372.1,271.81Z"/><path class="cls-2" d="M469.55,398.87c-12-.6-12-.64-10.2-12.32,1.46-9.28,1.46-9.28,11.32-8,7,.89,8.12,2.81,5.39,9.22a2.47,2.47,0,0,0,.05,2.2C478.56,396.51,476.52,399.22,469.55,398.87Zm1.36-6.17c.11-1.94-1.27-2.2-2.57-2.36s-2.71-.55-3.1,1.36c-.44,2.22,1.2,2.36,2.64,2.58S470.5,394.25,470.91,392.7Zm-2.52-10.18c-1.4-.12-2.23.4-2.13,1.93s1.38,1.66,2.5,1.78,2.45-.21,2.47-1.69C471.25,382.71,469.66,382.75,468.39,382.52Z"/><path class="cls-2" d="M510.5,387.36c3,1.18,7.12,2.46,10.89,4.49,3.16,1.71,3.51,6.78.36,8.35-3.79,1.89-3.14,4.05-2.48,7.06.32,1.46,1.81,4.28-.73,4.48-1.95.16-5.21-.24-5.66-3.65a9,9,0,0,0-.35-2c-.66-1.77.31-4.84-2-5.11-2.14-.24-1.86,2.8-2.38,4.36-.89,2.67-2.34,2.1-4.24,1.57s-2.9-1.2-2-3.46c1.82-4.8,3.44-9.69,5.14-14.55C507.39,387.79,507.81,386.69,510.5,387.36Zm4.45,10.2c1.19-.1,2.28-.6,2-2.08-.36-1.75-2.1-2-3.48-2.28s-1.56,1-1.63,1.93C511.64,397.33,513.45,397.18,515,397.56Z"/><path class="cls-2" d="M406.25,385.91c-.53-9.56-.53-9.72,9-9.93,2.39-.06,6.61-2.3,7.08,1.59.57,4.78-4.17,1.81-6.37,2.79-1.21.53-3.54-.49-3.49,1.68s2.28,1.11,3.55,1.51c2,.64,5.74-2.43,6,1.71s-3.73,1.68-5.73,2.37c-1.42.49-3.68-.41-3.46,2.3s2.43,1.53,3.85,1.64a32,32,0,0,0,4.48-.17c1.53-.11,2.54.2,2.68,2.05s-.76,2.67-2.58,2.73c-3.82.14-7.66.15-11.46.55-2.76.28-3.58-.9-3.53-3.35S406.25,388.4,406.25,385.91Z"/><path class="cls-2" d="M427.41,385.85c.48-10.34.48-10.49,10.81-10,2.14.09,6.25-2.19,6.3,2.12.06,4.48-4,1.56-6.18,2.25-1.4.45-4-1-4,1.5s2.52,1.36,4,1.59a25.2,25.2,0,0,0,3.48.13c1.51,0,1.92.92,2,2.29,0,1.63-.91,1.93-2.22,1.91a18.39,18.39,0,0,0-3.48,0c-1.49.27-4.16-1.34-4,1.92.12,3,2.68,1.66,4.24,1.93a22.49,22.49,0,0,0,3.49.08c1.56,0,2.94,0,3,2.29,0,2.11-1.06,2.55-2.78,2.5-4-.09-8-.24-12-.26-2.3,0-2.72-1.26-2.61-3.23C427.51,390.51,427.41,388.17,427.41,385.85Z"/><path class="cls-2" d="M363,395.74c0,6-4.22,9.82-11.13,10-5.95.13-9.95-4.25-10.07-11.05-.11-6.33,4.27-10.26,11.39-10.2C359.14,384.52,362.91,388.85,363,395.74Zm-6.22.19c-.73-2.66-.7-6.18-4.75-6.34-2.82-.1-4.23,1.81-3.93,4.55.32,2.94.61,6.26,4.64,6.46C355.65,400.75,356.69,398.76,356.75,395.93Z"/><path class="cls-2" d="M492,382.52c2.63.28,4.77,1,4.9,4.66.16,4.64,1,9.24,1.51,13.87.14,1.28,1.53,3.32-.86,3.6-1.61.19-3.87.16-4.83-1.81-2.11-4.34-4.81-5.26-8.76-2.09-1.67,1.33-3.82.31-5.12-.58-1.83-1.26.27-2.58,1-3.65,2.59-4.06,5.42-8,8-12C488.82,382.94,489.83,381.86,492,382.52Zm-.65,7.33c-1.36,1.29-2.93,2.44-2.5,4.42.07.36,1.73.89,2.14.6C492.89,393.54,491.52,391.62,491.36,389.85Z"/><path class="cls-3" d="M411.76,348.69c.13,5.24-3.34,9-8.47,9.13a8.58,8.58,0,0,1-9.18-8.47c-.24-5.2,3.15-8.79,8.49-9S411.64,343.52,411.76,348.69Z"/><path class="cls-2" d="M330.65,390.52a7.92,7.92,0,0,1,1.72.11c2.12.53,4.82,1.52,4.35,3.75-.38,1.77-2.92,2.94-5.43,1.72-2.3-1.12-4.53-.6-5.18,2-.8,3.26-.07,6.64,3.07,8.23,2.44,1.24,4.33-.18,5-3.08.62-2.65,3.05-1.74,4.58-1.46,2.24.4,1.21,2.43.88,3.68-1.53,5.73-11.06,8.42-15.86,4.56-3.54-2.85-5.33-9-3.85-13.17C321.26,393.16,325.54,390.55,330.65,390.52Z"/><path class="cls-2" d="M396.11,385.27c1.93,0,4.14-1.33,4.42,1.75.24,2.66-1.89,2.38-3.41,2.39-3.35,0-4.35,1.52-3.61,4.69.51,2.19.77,4.23-2.65,4.5-3,.24-3.71-1-3.81-3.62-.1-3-.65-5.92-.94-8.89-.74-7.61-.73-7.6,6.67-8.39,1.81-.19,3.62-.41,5.41-.69,1.53-.24,2.63,0,2.81,1.83.15,1.54-.24,2.6-2,2.69a13.09,13.09,0,0,0-3,.36c-1.39.41-3.92-.28-3.4,2.37C393,386.42,395.06,385.12,396.11,385.27Z"/><path class="cls-2" d="M365.63,384.54c0-.17,0-.33-.07-.5-.83-3.59,2.38-2.93,3.78-2.91,3.85.05,7.8-3.46,11.47-.1.8.74.41,2.62-1.45,3-1,.18-2,.3-2.93.57-1.44.4-3.94-.29-3.68,2.18.27,2.69,2.5,1.13,4,1.18s3.42-1.56,4.13,1c.77,2.82-1.52,2.93-3.25,3-3.71.25-4.28,2.28-3.42,5.35.59,2.12.77,3.84-2.27,4.26-2.77.38-3.81-.4-4.09-3.26-.4-4.29-1.33-8.52-2-12.78C365.72,385.19,365.68,384.86,365.63,384.54Z"/><path class="cls-1" d="M431.05,287.75c-.12,4.29-.53,8-2.75,11.36a9.33,9.33,0,0,1-9.39,4.29,8.77,8.77,0,0,1-7.88-6.61,24.19,24.19,0,0,1,.18-14.7,10.24,10.24,0,0,1,11.27-7c4.63.61,7.48,3.75,8.25,9.17C430.92,285.54,431,286.87,431.05,287.75Z"/><path class="cls-1" d="M470.91,392.7c-.41,1.55-1.65,1.79-3,1.58s-3.08-.36-2.64-2.58c.39-1.91,1.87-1.52,3.1-1.36S471,390.76,470.91,392.7Z"/><path class="cls-1" d="M468.39,382.52c1.27.23,2.86.19,2.84,2,0,1.48-1.22,1.83-2.47,1.69s-2.4-.19-2.5-1.78S467,382.4,468.39,382.52Z"/><path class="cls-1" d="M515,397.56c-1.5-.38-3.31-.23-3.14-2.43.07-.94.28-2.22,1.63-1.93s3.12.53,3.48,2.28C517.23,397,516.14,397.46,515,397.56Z"/><path class="cls-1" d="M356.75,395.93c-.06,2.83-1.1,4.82-4,4.67-4-.2-4.32-3.52-4.64-6.46-.3-2.74,1.11-4.65,3.93-4.55C356.05,389.75,356,393.27,356.75,395.93Z"/><path class="cls-1" d="M491.36,389.85c.16,1.77,1.53,3.69-.36,5-.41.29-2.07-.24-2.14-.6C488.43,392.29,490,391.14,491.36,389.85Z"/></svg>